<?xml version="1.0" encoding="UTF-8"?>
<svg xmlns="http://www.w3.org/2000/svg" version="1.1" viewBox="0 0 169.2 63.8">
  <defs>
    <style>
      .cls-1 {
        font-family: KaiseiDecol-Regular, 'Kaisei Decol';
        font-size: 18.2px;
      }

      .cls-1, .cls-2 {
        isolation: isolate;
      }

      .cls-1, .cls-3 {
        fill: #231815;
      }

      .cls-4 {
        fill: #fff;
      }
    </style>
  </defs>
  <!-- Generator: Adobe Illustrator 28.7.1, SVG Export Plug-In . SVG Version: 1.2.0 Build 142)  -->
  <g>
    <g id="_レイヤー_1" data-name="レイヤー_1">
      <g id="_レイヤー_1-2" data-name="_レイヤー_1">
        <g>
          <g>
            <g>
              <polygon class="cls-3" points="90.7 63.4 86.4 63.4 86.4 51.8 90.7 51.8 90.7 63.4"/>
              <path class="cls-3" d="M90.9,63.8h-4.8v-12.3h4.8v12.3ZM86.7,63.1h3.6s0-11,0-11h-3.6s0,11,0,11Z"/>
            </g>
            <g>
              <polygon class="cls-3" points="99.2 28.1 95.6 25.4 88.3 35.3 82.1 25.3 78.5 27.5 85.9 39.5 88.8 37.7 90.9 39.3 99.2 28.1"/>
              <path class="cls-3" d="M85.8,39.9l-7.7-12.4,4.1-2.5,6.1,9.9,7.2-9.8,4.1,3-8.7,11.7-2.3-1.7-2.9,1.8h0ZM78.9,27.6l7.1,11.4,2.7-1.7,2.1,1.6,7.9-10.7-3.1-2.3-7.4,10-6.3-10.1-3.1,1.9h0Z"/>
            </g>
            <g>
              <rect class="cls-3" x="41.8" y="47" width="4.3" height="16.4"/>
              <path class="cls-3" d="M46.4,63.7h-4.9v-17h4.9v17ZM42.1,63.1h3.7v-15.8h-3.7v15.8Z"/>
            </g>
            <g>
              <rect class="cls-3" x="41.8" y="27.7" width="4.3" height="16.4"/>
              <path class="cls-3" d="M46.4,44.4h-4.9v-17h4.9v17ZM42.1,43.8h3.7v-15.8h-3.7v15.8Z"/>
            </g>
            <g>
              <rect class="cls-3" x="52.9" y="27.4" width="4.1" height="16.4"/>
              <path class="cls-3" d="M57.4,44.1h-4.8v-17h4.8v17ZM53.2,43.5h3.5v-15.8h-3.5v15.8Z"/>
            </g>
            <g>
              <rect class="cls-3" x="52.9" y="47" width="4.1" height="16.4"/>
              <path class="cls-3" d="M57.4,63.7h-4.8v-17h4.8v17ZM53.2,63.1h3.5v-15.8h-3.5v15.8Z"/>
            </g>
            <g>
              <path class="cls-3" d="M119,63.4h-7.1c-1.8-17.3-4.8,0-4.8,0h-7s-1.3-36,10.8-37.8c.1.1,11.6-2.8,8.1,37.8Z"/>
              <path class="cls-3" d="M119.2,63.8h-7.7v-.3c-.8-7-1.6-7.4-1.8-7.4h0c-.7,0-1.8,3.8-2.5,7.4v.2h-7.6v-.3c0,0-.3-9.1.8-18.3,1.6-12.4,5-19.1,10.2-19.8h.2s0,0,0,0c1.8-.1,3.2.9,4,1.8,3.1,3.2,6.4,12.1,4.3,36.3v.3s0,0,0,0ZM112.1,63.1h6.6c2-23.8-1.2-32.5-4.2-35.6-1.1-1.1-2.3-1.6-3.6-1.6h-.1c-11.1,1.6-10.6,33.7-10.5,37.2h6.4c1.3-7.2,2.7-7.7,3.1-7.7.7,0,1.6,1,2.3,7.7h0Z"/>
            </g>
            <g>
              <path class="cls-3" d="M71,26.2c3.3.2,10.5,5.9,9.1,37.3h-7.2c-2-19.2-6.4-.2-6.4,0l-6.5-.2s-3.2-37.9,11-37.1Z"/>
              <path class="cls-3" d="M66.9,63.8l-7.2-.2v-.3c0,0-.6-6.8-.2-14.5.5-10.3,2.5-17.3,5.8-20.6,1.6-1.6,3.5-2.4,5.7-2.3h0c1.8.1,10.9,2.5,9.3,37.6v.3h-7.8v-.3c-.8-7.7-2-8.3-2.3-8.3-1.4,0-3.4,7.2-3.5,8.2,0,0,0,.3,0,.3ZM73.2,63.1h6.6c1.5-35-7.7-36.6-8.8-36.7-2-.1-3.8.6-5.2,2.1-7.2,7.3-5.7,31.6-5.5,34.4l6,.2c.3-1.5,1.7-7,3.3-8.2.5-.4.9-.3,1.1-.2.7.3,1.7,1.5,2.5,8.5h0Z"/>
            </g>
            <g>
              <g>
                <path class="cls-3" d="M127.3,45.2c.6-.5,1.1-1.2,1.2-2.1.4-2.1-.9-4.1-2.9-4.6-2.1-.4-4.1.9-4.6,3-.1.6-.1,1.1,0,1.7H39.9c0-.1,0-.3.1-.4.4-2.1-.9-4.1-3-4.6s-4.1.9-4.6,3c-.4,1.8.5,3.5,2.1,4.3-1,.5-1.8,1.4-2,2.6-.4,2.1.9,4.1,3,4.6,2.1.4,4.1-.9,4.6-3,.1-.5.1-1,0-1.5h80.8c0,1.8,1.2,3.4,3,3.8,2.1.4,4.1-.9,4.6-3,.3-1.4-.2-2.8-1.2-3.7h0Z"/>
                <path class="cls-3" d="M36.4,52.8c-.3,0-.5,0-.8,0-1-.2-1.9-.8-2.5-1.7s-.8-1.9-.5-3c.2-1.1.9-2,1.9-2.6-1.6-.8-2.4-2.5-2-4.3.5-2.1,2.5-3.5,4.7-3,1,.2,1.9.8,2.5,1.7s.8,1.9.5,3c0,.1,0,.2,0,.3h81c-.1-.5-.1-1.1,0-1.6.2-1,.8-1.9,1.7-2.5s1.9-.8,2.9-.5c1,.2,1.9.8,2.5,1.7.6.9.8,1.9.5,3-.2.8-.6,1.5-1.2,2.1,1,.9,1.5,2.4,1.2,3.7-.4,2.1-2.5,3.5-4.7,3-1.8-.4-3.1-2-3.1-3.8H40.2c0,.5,0,1,0,1.5-.4,1.8-2,3.1-3.8,3.1h0ZM36.3,38.2c-.7,0-1.4.2-2,.6-.8.5-1.4,1.4-1.6,2.4-.4,1.7.5,3.4,2.1,4.2h.1c0,0-.1.1-.1.1-1,.5-1.7,1.5-2,2.6-.2,1,0,2,.5,2.8.5.8,1.4,1.4,2.4,1.6,2,.4,4-.9,4.5-2.9.1-.5.1-1,0-1.5h0c0,0,81,0,81,0h0c0,1.8,1.2,3.4,3,3.8,2,.4,4-.9,4.5-2.9.3-1.3-.2-2.7-1.2-3.6h0c0,0,0-.1,0-.1.6-.5,1.1-1.3,1.2-2.1.2-1,0-2-.5-2.8-.6-.8-1.4-1.4-2.4-1.6-1-.2-2,0-2.8.5-.8.5-1.4,1.4-1.6,2.4-.1.5-.1,1.1,0,1.7h0c0,0-81.4,0-81.4,0h0c0-.2,0-.4.1-.5.2-1,0-2-.5-2.8s-1.4-1.4-2.4-1.6c-.3,0-.5,0-.8,0h0Z"/>
              </g>
              <g>
                <path class="cls-3" d="M87.5,37c-3.3,0-6.4,1-8.5,2.5-2.2-1.6-5.2-2.5-8.5-2.5-6.6,0-12,3.8-12,8.4s5.4,8.4,12,8.4,6.4-1,8.5-2.5c2.2,1.6,5.2,2.5,8.5,2.5,6.6,0,12-3.8,12-8.4s-5.4-8.4-12-8.4Z"/>
                <path class="cls-3" d="M87.5,53.9c-3.2,0-6.3-.9-8.5-2.5-2.3,1.6-5.3,2.5-8.5,2.5-6.6,0-12-3.8-12-8.5s5.4-8.5,12-8.5,6.3.9,8.5,2.5c2.3-1.6,5.3-2.5,8.5-2.5,6.6,0,12,3.8,12,8.5s-5.4,8.5-12,8.5ZM78.9,51.2h0c2.3,1.6,5.3,2.5,8.5,2.5,6.6,0,11.9-3.7,11.9-8.3s-5.3-8.3-11.9-8.3-6.2.9-8.5,2.5h0s0,0,0,0c-2.3-1.6-5.3-2.5-8.5-2.5-6.5,0-11.9,3.7-11.9,8.3s5.3,8.3,11.9,8.3,6.2-.9,8.5-2.5h0Z"/>
              </g>
            </g>
            <circle class="cls-4" cx="69.8" cy="44.8" r="4"/>
            <circle class="cls-4" cx="110.6" cy="44.5" r="4"/>
          </g>
          <g class="cls-2">
            <text class="cls-1" transform="translate(8.2 38.2) rotate(-29.8)"><tspan x="0" y="0">佐</tspan></text>
            <text class="cls-1" transform="translate(24 29.1) rotate(-22.9)"><tspan x="0" y="0">賀</tspan></text>
            <text class="cls-1" transform="translate(40.8 22) rotate(-15.1)"><tspan x="0" y="0">う</tspan></text>
            <text class="cls-1" transform="translate(58.5 17.2) rotate(-6.3)"><tspan x="0" y="0">し</tspan></text>
            <text class="cls-1" transform="translate(76.7 15.2) rotate(2.8)"><tspan x="0" y="0">焼</tspan></text>
            <text class="cls-1" transform="translate(94.9 16.1) rotate(11.9)"><tspan x="0" y="0">肉</tspan></text>
            <text class="cls-1" transform="translate(112.8 19.9) rotate(20.4)"><tspan x="0" y="0">居</tspan></text>
            <text class="cls-1" transform="translate(129.9 26.3) rotate(28)"><tspan x="0" y="0">酒</tspan></text>
          </g>
          <text class="cls-1" transform="translate(146 34.9) rotate(34.5)"><tspan x="0" y="0">屋</tspan></text>
        </g>
      </g>
    </g>
  </g>
</svg>